<svg width="14" height="14" viewBox="0 0 14 14" fill="none" xmlns="http://www.w3.org/2000/svg">
<path d="M4.66159 11.676C4.70908 11.676 4.75612 11.6667 4.8 11.6486C4.84389 11.6304 4.88377 11.6038 4.91736 11.5702L9.37453 7.11279C9.44232 7.04498 9.48041 6.95302 9.48041 6.85713C9.48041 6.76125 9.44232 6.66929 9.37453 6.60148L4.91736 2.14407C4.88379 2.11048 4.84393 2.08383 4.80006 2.06565C4.75619 2.04746 4.70916 2.0381 4.66167 2.03809C4.61418 2.03807 4.56715 2.04742 4.52327 2.06558C4.47939 2.08375 4.43952 2.11037 4.40593 2.14395C4.37234 2.17752 4.3457 2.21738 4.32751 2.26125C4.30933 2.30512 4.29996 2.35215 4.29995 2.39964C4.29994 2.44713 4.30928 2.49416 4.32745 2.53804C4.34561 2.58192 4.37224 2.62179 4.40581 2.65538L8.60744 6.85701L4.40581 11.0586C4.35521 11.1092 4.32074 11.1737 4.30677 11.2438C4.29281 11.314 4.29997 11.3867 4.32735 11.4528C4.35473 11.5189 4.40111 11.5754 4.4606 11.6151C4.5201 11.6549 4.59005 11.6761 4.66159 11.676Z" fill="white"/>
</svg>
