<svg width="14" height="14" viewBox="0 0 14 14" fill="none" xmlns="http://www.w3.org/2000/svg">
<path d="M9.33842 11.676C9.29092 11.676 9.24389 11.6667 9.2 11.6486C9.15612 11.6304 9.11624 11.6038 9.08264 11.5702L4.62547 7.11279C4.55768 7.04498 4.5196 6.95302 4.5196 6.85713C4.5196 6.76125 4.55768 6.66929 4.62547 6.60148L9.08264 2.14407C9.11622 2.11048 9.15608 2.08383 9.19995 2.06565C9.24382 2.04746 9.29084 2.0381 9.33833 2.03809C9.38583 2.03807 9.43285 2.04742 9.47673 2.06558C9.52061 2.08375 9.56049 2.11037 9.59408 2.14395C9.62767 2.17752 9.65431 2.21738 9.6725 2.26125C9.69068 2.30512 9.70005 2.35215 9.70006 2.39964C9.70007 2.44713 9.69073 2.49416 9.67256 2.53804C9.6544 2.58192 9.62777 2.62179 9.5942 2.65538L5.39256 6.85701L9.5942 11.0586C9.6448 11.1092 9.67927 11.1737 9.69323 11.2438C9.7072 11.314 9.70004 11.3867 9.67266 11.4528C9.64527 11.5189 9.5989 11.5754 9.5394 11.6151C9.47991 11.6549 9.40996 11.6761 9.33842 11.676Z" fill="#111111"/>
</svg>
