<svg width="132" height="37" viewBox="0 0 132 37" fill="none" xmlns="http://www.w3.org/2000/svg">
<path d="M0.790049 14.5099H2.23005C2.59005 14.5099 2.77005 14.3299 2.77005 13.9699V2.0899C2.77005 1.90323 2.72338 1.7699 2.63005 1.6899C2.55005 1.59657 2.41672 1.5499 2.23005 1.5499H0.790049V0.909902H7.47005C8.40338 0.909902 9.23005 1.0699 9.95005 1.3899C10.6834 1.69657 11.25 2.13657 11.65 2.7099C12.0634 3.2699 12.27 3.9099 12.27 4.6299C12.27 5.36324 12.0634 6.01657 11.65 6.5899C11.25 7.16324 10.6834 7.61657 9.95005 7.9499C9.23005 8.2699 8.40338 8.4299 7.47005 8.4299H4.61005V13.9699C4.61005 14.1566 4.65005 14.2966 4.73005 14.3899C4.81005 14.4699 4.95005 14.5099 5.15005 14.5099H6.91005V15.1499H0.790049V14.5099ZM7.73005 7.7899C8.45005 7.7899 9.03005 7.48324 9.47005 6.8699C9.92338 6.24324 10.15 5.49657 10.15 4.6299C10.15 3.76324 9.93005 3.03657 9.49005 2.4499C9.05005 1.8499 8.46338 1.5499 7.73005 1.5499H5.15005C4.96338 1.5499 4.82338 1.59657 4.73005 1.6899C4.65005 1.7699 4.61005 1.90323 4.61005 2.0899V7.7899H7.73005ZM13.7038 14.6699H14.8238C14.9838 14.6699 15.0971 14.6366 15.1638 14.5699C15.2305 14.5032 15.2638 14.3899 15.2638 14.2299V1.8299C15.2638 1.6699 15.2305 1.55657 15.1638 1.4899C15.0971 1.42324 14.9838 1.3899 14.8238 1.3899H13.7038V0.909902H16.7038V7.6699L16.7838 7.6899C17.0905 7.0499 17.4705 6.57657 17.9238 6.2699C18.3771 5.9499 18.8771 5.7899 19.4238 5.7899C20.3971 5.7899 21.0838 6.0899 21.4838 6.6899C21.8971 7.2899 22.1038 8.0099 22.1038 8.8499V14.2299C22.1038 14.3899 22.1371 14.5032 22.2038 14.5699C22.2705 14.6366 22.3838 14.6699 22.5438 14.6699H23.3838V15.1499H19.3838V14.6699H20.2238C20.3838 14.6699 20.4971 14.6366 20.5638 14.5699C20.6305 14.5032 20.6638 14.3899 20.6638 14.2299V8.4699C20.6638 7.88324 20.5438 7.38324 20.3038 6.9699C20.0771 6.55657 19.6838 6.3499 19.1238 6.3499C18.6571 6.3499 18.2371 6.51657 17.8638 6.8499C17.5038 7.1699 17.2171 7.61657 17.0038 8.1899C16.8038 8.7499 16.7038 9.37657 16.7038 10.0699V14.2299C16.7038 14.3899 16.7371 14.5032 16.8038 14.5699C16.8705 14.6366 16.9838 14.6699 17.1438 14.6699H17.9838V15.1499H13.7038V14.6699ZM28.9827 15.3899C28.2494 15.3899 27.576 15.1766 26.9627 14.7499C26.3494 14.3099 25.8627 13.7232 25.5027 12.9899C25.156 12.2566 24.9827 11.4566 24.9827 10.5899C24.9827 9.72324 25.156 8.92324 25.5027 8.1899C25.8627 7.45657 26.3494 6.87657 26.9627 6.4499C27.576 6.0099 28.2494 5.7899 28.9827 5.7899C29.716 5.7899 30.3894 6.0099 31.0027 6.4499C31.616 6.87657 32.096 7.45657 32.4427 8.1899C32.8027 8.92324 32.9827 9.72324 32.9827 10.5899C32.9827 11.4566 32.8027 12.2566 32.4427 12.9899C32.096 13.7232 31.616 14.3099 31.0027 14.7499C30.3894 15.1766 29.716 15.3899 28.9827 15.3899ZM28.9827 14.9099C29.7827 14.9099 30.356 14.5366 30.7027 13.7899C31.0494 13.0299 31.2227 11.9632 31.2227 10.5899C31.2227 9.21657 31.0494 8.15657 30.7027 7.4099C30.356 6.6499 29.7827 6.2699 28.9827 6.2699C28.1827 6.2699 27.6094 6.6499 27.2627 7.4099C26.916 8.15657 26.7427 9.21657 26.7427 10.5899C26.7427 11.9632 26.916 13.0299 27.2627 13.7899C27.6094 14.5366 28.1827 14.9099 28.9827 14.9099ZM34.7046 14.6699H35.5446C35.7046 14.6699 35.8179 14.6366 35.8846 14.5699C35.9512 14.5032 35.9846 14.3899 35.9846 14.2299V6.9499C35.9846 6.7899 35.9512 6.67657 35.8846 6.6099C35.8179 6.54324 35.7046 6.5099 35.5446 6.5099H34.7046V6.0299H37.4246V7.6699L37.5046 7.6899C37.8112 7.0499 38.1912 6.57657 38.6446 6.2699C39.0979 5.9499 39.5979 5.7899 40.1446 5.7899C41.1179 5.7899 41.8046 6.0899 42.2046 6.6899C42.6179 7.2899 42.8246 8.0099 42.8246 8.8499V14.2299C42.8246 14.3899 42.8579 14.5032 42.9246 14.5699C42.9912 14.6366 43.1046 14.6699 43.2646 14.6699H44.1046V15.1499H40.1046V14.6699H40.9446C41.1046 14.6699 41.2179 14.6366 41.2846 14.5699C41.3512 14.5032 41.3846 14.3899 41.3846 14.2299V8.4699C41.3846 7.88324 41.2646 7.38324 41.0246 6.9699C40.7979 6.55657 40.4046 6.3499 39.8446 6.3499C39.3779 6.3499 38.9579 6.51657 38.5846 6.8499C38.2246 7.1699 37.9379 7.61657 37.7246 8.1899C37.5246 8.7499 37.4246 9.37657 37.4246 10.0699V14.2299C37.4246 14.3899 37.4579 14.5032 37.5246 14.5699C37.5912 14.6366 37.7046 14.6699 37.8646 14.6699H38.7046V15.1499H34.7046V14.6699ZM49.8254 15.3899C48.5854 15.3899 47.5854 14.9699 46.8254 14.1299C46.0787 13.2899 45.7054 12.1232 45.7054 10.6299C45.7054 9.77657 45.872 8.98324 46.2054 8.2499C46.5387 7.50324 46.9987 6.9099 47.5854 6.4699C48.1854 6.01657 48.852 5.7899 49.5854 5.7899C50.3987 5.7899 51.0654 6.0099 51.5854 6.4499C52.1054 6.8899 52.4787 7.4499 52.7054 8.1299C52.9454 8.79657 53.0654 9.48324 53.0654 10.1899C53.0654 10.3366 53.0187 10.4366 52.9254 10.4899C52.832 10.5299 52.672 10.5499 52.4454 10.5499H47.4654C47.4654 11.8832 47.652 12.9432 48.0254 13.7299C48.412 14.5166 49.0387 14.9099 49.9054 14.9099C50.5187 14.9099 51.092 14.6766 51.6254 14.2099C52.172 13.7432 52.5187 13.0166 52.6654 12.0299H53.1454C53.0654 13.0032 52.7254 13.8099 52.1254 14.4499C51.5387 15.0766 50.772 15.3899 49.8254 15.3899ZM51.3454 10.0699C51.3454 9.00324 51.2054 8.10324 50.9254 7.3699C50.6454 6.63657 50.1854 6.2699 49.5454 6.2699C48.8654 6.2699 48.3454 6.64324 47.9854 7.3899C47.6387 8.12324 47.4654 9.01657 47.4654 10.0699H51.3454ZM63.65 3.0899H63.57V12.9099C63.57 13.4032 63.6834 13.7966 63.91 14.0899C64.15 14.3699 64.4567 14.5099 64.83 14.5099H65.55V15.1499H60.79V14.5099H61.51C61.8967 14.5099 62.2034 14.3699 62.43 14.0899C62.6567 13.7966 62.77 13.4032 62.77 12.9099V2.0899C62.7567 1.90323 62.71 1.7699 62.63 1.6899C62.55 1.59657 62.4167 1.5499 62.23 1.5499H60.79V0.909902H64.57L71.51 12.0699V3.1499C71.51 2.65657 71.3967 2.2699 71.17 1.9899C70.9434 1.69657 70.6434 1.5499 70.27 1.5499H69.55V0.909902H74.31V1.5499H73.59C73.2167 1.5499 72.91 1.69657 72.67 1.9899C72.43 2.2699 72.31 2.65657 72.31 3.1499V15.5099H71.51L63.65 3.0899ZM79.5407 15.3899C78.5673 15.3899 77.874 15.0899 77.4607 14.4899C77.0607 13.8899 76.8607 13.1699 76.8607 12.3299V6.9499C76.8607 6.7899 76.8273 6.67657 76.7607 6.6099C76.694 6.54324 76.5807 6.5099 76.4207 6.5099H75.5807V6.0299H78.3007V12.7099C78.3007 13.2966 78.414 13.7966 78.6407 14.2099C78.8807 14.6232 79.2807 14.8299 79.8407 14.8299C80.3073 14.8299 80.7207 14.6699 81.0807 14.3499C81.454 14.0166 81.7407 13.5699 81.9407 13.0099C82.154 12.4366 82.2607 11.8032 82.2607 11.1099V6.9499C82.2607 6.7899 82.2273 6.67657 82.1607 6.6099C82.094 6.54324 81.9807 6.5099 81.8207 6.5099H80.9807V6.0299H83.7007V14.2299C83.7007 14.3899 83.734 14.5032 83.8007 14.5699C83.8673 14.6366 83.9807 14.6699 84.1407 14.6699H84.9807V15.1499H82.2607V13.5099L82.1807 13.4899C81.874 14.1299 81.494 14.6099 81.0407 14.9299C80.5873 15.2366 80.0873 15.3899 79.5407 15.3899ZM86.3843 14.6699H87.2243C87.3843 14.6699 87.4976 14.6366 87.5643 14.5699C87.6309 14.5032 87.6643 14.3899 87.6643 14.2299V6.9499C87.6643 6.7899 87.6309 6.67657 87.5643 6.6099C87.4976 6.54324 87.3843 6.5099 87.2243 6.5099H86.3843V6.0299H89.1043V7.6299L89.1843 7.6499C89.4643 7.03657 89.8243 6.57657 90.2643 6.2699C90.7176 5.9499 91.1976 5.7899 91.7043 5.7899C92.4909 5.7899 93.0709 6.00324 93.4443 6.4299C93.8309 6.85657 94.0909 7.36324 94.2243 7.9499H94.3043C94.4643 7.41657 94.7776 6.92324 95.2443 6.4699C95.7243 6.01657 96.2776 5.7899 96.9043 5.7899C97.8776 5.7899 98.5643 6.11657 98.9643 6.7699C99.3776 7.42324 99.5843 8.1899 99.5843 9.0699V14.2299C99.5843 14.3899 99.6176 14.5032 99.6843 14.5699C99.7509 14.6366 99.8643 14.6699 100.024 14.6699H100.864V15.1499H96.8643V14.6699H97.7043C97.8643 14.6699 97.9776 14.6366 98.0443 14.5699C98.1109 14.5032 98.1443 14.3899 98.1443 14.2299V8.3699C98.1443 7.83657 98.0176 7.3699 97.7643 6.9699C97.5109 6.55657 97.1443 6.3499 96.6643 6.3499C96.2643 6.3499 95.8843 6.5099 95.5243 6.8299C95.1776 7.13657 94.8909 7.56324 94.6643 8.1099C94.4509 8.65657 94.3443 9.2699 94.3443 9.9499V14.2299C94.3443 14.3899 94.3776 14.5032 94.4443 14.5699C94.5109 14.6366 94.6243 14.6699 94.7843 14.6699H95.6243V15.1499H91.6243V14.6699H92.4643C92.6243 14.6699 92.7376 14.6366 92.8043 14.5699C92.8709 14.5032 92.9043 14.3899 92.9043 14.2299V8.3699C92.9043 7.83657 92.7776 7.3699 92.5243 6.9699C92.2709 6.55657 91.9043 6.3499 91.4243 6.3499C91.0243 6.3499 90.6443 6.5099 90.2843 6.8299C89.9376 7.13657 89.6509 7.56324 89.4243 8.1099C89.2109 8.65657 89.1043 9.2699 89.1043 9.9499V14.2299C89.1043 14.3899 89.1376 14.5032 89.2043 14.5699C89.2709 14.6366 89.3843 14.6699 89.5443 14.6699H90.3843V15.1499H86.3843V14.6699ZM107.263 15.3899C106.73 15.3899 106.237 15.2099 105.783 14.8499C105.33 14.4899 104.97 14.0166 104.703 13.4299H104.623L103.783 15.1499H103.423V1.8299C103.423 1.6699 103.39 1.55657 103.323 1.4899C103.257 1.42324 103.143 1.3899 102.983 1.3899H101.943V0.909902H104.863V7.5099L104.943 7.5299C105.143 7.0499 105.45 6.64324 105.863 6.3099C106.277 5.96324 106.743 5.7899 107.263 5.7899C107.89 5.7899 108.47 6.00324 109.003 6.4299C109.55 6.84324 109.983 7.41657 110.303 8.1499C110.623 8.88324 110.783 9.69657 110.783 10.5899C110.783 11.4832 110.623 12.2966 110.303 13.0299C109.983 13.7632 109.55 14.3432 109.003 14.7699C108.47 15.1832 107.89 15.3899 107.263 15.3899ZM107.043 14.8299C107.697 14.8299 108.19 14.4632 108.523 13.7299C108.857 12.9966 109.023 11.9499 109.023 10.5899C109.023 9.2299 108.857 8.18324 108.523 7.4499C108.19 6.71657 107.697 6.3499 107.043 6.3499C106.643 6.3499 106.277 6.49657 105.943 6.7899C105.61 7.08324 105.343 7.4899 105.143 8.0099C104.957 8.51657 104.863 9.0699 104.863 9.6699V11.5099C104.863 12.1099 104.957 12.6699 105.143 13.1899C105.343 13.6966 105.61 14.0966 105.943 14.3899C106.277 14.6832 106.643 14.8299 107.043 14.8299ZM116.818 15.3899C115.578 15.3899 114.578 14.9699 113.818 14.1299C113.071 13.2899 112.698 12.1232 112.698 10.6299C112.698 9.77657 112.864 8.98324 113.198 8.2499C113.531 7.50324 113.991 6.9099 114.578 6.4699C115.178 6.01657 115.844 5.7899 116.578 5.7899C117.391 5.7899 118.058 6.0099 118.578 6.4499C119.098 6.8899 119.471 7.4499 119.698 8.1299C119.938 8.79657 120.058 9.48324 120.058 10.1899C120.058 10.3366 120.011 10.4366 119.918 10.4899C119.824 10.5299 119.664 10.5499 119.438 10.5499H114.458C114.458 11.8832 114.644 12.9432 115.018 13.7299C115.404 14.5166 116.031 14.9099 116.898 14.9099C117.511 14.9099 118.084 14.6766 118.618 14.2099C119.164 13.7432 119.511 13.0166 119.658 12.0299H120.138C120.058 13.0032 119.718 13.8099 119.118 14.4499C118.531 15.0766 117.764 15.3899 116.818 15.3899ZM118.338 10.0699C118.338 9.00324 118.198 8.10324 117.918 7.3699C117.638 6.63657 117.178 6.2699 116.538 6.2699C115.858 6.2699 115.338 6.64324 114.978 7.3899C114.631 8.12324 114.458 9.01657 114.458 10.0699H118.338ZM121.697 14.6699H122.537C122.697 14.6699 122.81 14.6366 122.877 14.5699C122.943 14.5032 122.977 14.3899 122.977 14.2299V6.9499C122.977 6.7899 122.943 6.67657 122.877 6.6099C122.81 6.54324 122.697 6.5099 122.537 6.5099H121.697V6.0299H124.417V8.0299L124.497 8.0499C124.777 7.35657 125.137 6.8099 125.577 6.4099C126.03 5.99657 126.51 5.7899 127.017 5.7899C127.523 5.7899 127.937 5.93657 128.257 6.2299C128.577 6.52324 128.737 6.92324 128.737 7.4299C128.737 7.72324 128.63 8.0099 128.417 8.2899C128.217 8.5699 127.957 8.7099 127.637 8.7099C127.383 8.7099 127.17 8.64324 126.997 8.5099C126.823 8.37657 126.737 8.1899 126.737 7.9499C126.737 7.6699 126.87 7.4299 127.137 7.2299C127.257 7.1499 127.343 7.07657 127.397 7.0099C127.463 6.94324 127.497 6.85657 127.497 6.7499C127.497 6.6299 127.437 6.53657 127.317 6.4699C127.21 6.3899 127.057 6.3499 126.857 6.3499C126.443 6.3499 126.043 6.5499 125.657 6.9499C125.283 7.3499 124.983 7.8699 124.757 8.5099C124.53 9.1499 124.417 9.81657 124.417 10.5099V14.2299C124.417 14.3899 124.45 14.5032 124.517 14.5699C124.583 14.6366 124.697 14.6699 124.857 14.6699H125.697V15.1499H121.697V14.6699Z" fill="#222222"/>
<path d="M6.90552 30.811V32.0005H0.083252V30.811H6.90552ZM4.13013 27.9058V35.1519H2.86548V27.9058H4.13013ZM9.57837 35.0903H9.70825C10.4374 35.0903 11.0299 34.9878 11.4856 34.7827C11.9413 34.5776 12.2922 34.3019 12.5383 33.9556C12.7844 33.6092 12.953 33.2196 13.0442 32.7866C13.1353 32.3491 13.1809 31.9002 13.1809 31.4399V29.9155C13.1809 29.4644 13.1285 29.0633 13.0237 28.7124C12.9234 28.3615 12.7821 28.0675 12.5999 27.8306C12.4221 27.5936 12.2193 27.4136 11.9915 27.2905C11.7636 27.1675 11.5221 27.106 11.2668 27.106C10.9752 27.106 10.7131 27.1652 10.4807 27.2837C10.2528 27.3976 10.0592 27.5594 9.89966 27.769C9.74471 27.9787 9.62622 28.2248 9.54419 28.5073C9.46216 28.7899 9.42114 29.0975 9.42114 29.4302C9.42114 29.7264 9.4576 30.0135 9.53052 30.2915C9.60343 30.5695 9.71509 30.8201 9.86548 31.0435C10.0159 31.2668 10.2027 31.4445 10.426 31.5767C10.6539 31.7043 10.9205 31.7681 11.2258 31.7681C11.5084 31.7681 11.7727 31.7134 12.0188 31.604C12.2694 31.4901 12.4905 31.3374 12.6819 31.146C12.8778 30.95 13.0328 30.729 13.1467 30.4829C13.2652 30.2368 13.3336 29.9793 13.3518 29.7104H13.9534C13.9534 30.0887 13.8782 30.4624 13.7278 30.8315C13.5819 31.1961 13.3769 31.5288 13.1125 31.8296C12.8482 32.1304 12.5383 32.3719 12.1829 32.5542C11.8274 32.7319 11.44 32.8208 11.0208 32.8208C10.5286 32.8208 10.1025 32.7251 9.74243 32.5337C9.38241 32.3423 9.08618 32.0871 8.85376 31.7681C8.6259 31.4491 8.455 31.0936 8.34106 30.7017C8.23169 30.3052 8.177 29.9041 8.177 29.4985C8.177 29.0246 8.24308 28.5802 8.37524 28.1655C8.50741 27.7508 8.70337 27.3862 8.96313 27.0718C9.2229 26.7528 9.54419 26.5044 9.927 26.3267C10.3144 26.1489 10.761 26.0601 11.2668 26.0601C11.8365 26.0601 12.3219 26.174 12.7229 26.4019C13.1239 26.6297 13.4498 26.9351 13.7004 27.3179C13.9556 27.7007 14.1425 28.1313 14.261 28.6099C14.3795 29.0884 14.4387 29.5806 14.4387 30.0864V30.5444C14.4387 31.0594 14.4045 31.5835 14.3362 32.1167C14.2724 32.6453 14.1471 33.1512 13.9602 33.6343C13.7779 34.1174 13.5113 34.5503 13.1604 34.9331C12.8095 35.3114 12.3515 35.6121 11.7864 35.8354C11.2258 36.0542 10.5331 36.1636 9.70825 36.1636H9.57837V35.0903ZM22.4709 33.4565C22.4709 34.0627 22.3297 34.5776 22.0471 35.0015C21.7691 35.4207 21.3909 35.7397 20.9124 35.9585C20.4384 36.1772 19.9029 36.2866 19.3059 36.2866C18.7089 36.2866 18.1711 36.1772 17.6926 35.9585C17.2141 35.7397 16.8359 35.4207 16.5579 35.0015C16.2799 34.5776 16.1409 34.0627 16.1409 33.4565C16.1409 33.0601 16.2161 32.6978 16.3665 32.3696C16.5214 32.0369 16.7379 31.7476 17.0159 31.5015C17.2984 31.2554 17.6311 31.0662 18.0139 30.9341C18.4013 30.7974 18.8274 30.729 19.2922 30.729C19.9029 30.729 20.4475 30.8475 20.926 31.0845C21.4045 31.3169 21.7805 31.6382 22.054 32.0483C22.3319 32.4585 22.4709 32.9279 22.4709 33.4565ZM21.1995 33.4292C21.1995 33.0601 21.1197 32.7342 20.9602 32.4517C20.8007 32.1646 20.5774 31.9412 20.2903 31.7817C20.0032 31.6222 19.6705 31.5425 19.2922 31.5425C18.9049 31.5425 18.5699 31.6222 18.2874 31.7817C18.0094 31.9412 17.7929 32.1646 17.6379 32.4517C17.483 32.7342 17.4055 33.0601 17.4055 33.4292C17.4055 33.812 17.4807 34.1401 17.6311 34.4136C17.7861 34.6825 18.0048 34.8898 18.2874 35.0356C18.5745 35.1769 18.914 35.2476 19.3059 35.2476C19.6978 35.2476 20.0351 35.1769 20.3176 35.0356C20.6002 34.8898 20.8167 34.6825 20.967 34.4136C21.122 34.1401 21.1995 33.812 21.1995 33.4292ZM22.2385 28.7876C22.2385 29.2707 22.1109 29.7059 21.8557 30.0933C21.6005 30.4806 21.2519 30.786 20.8098 31.0093C20.3678 31.2326 19.8665 31.3442 19.3059 31.3442C18.7362 31.3442 18.2281 31.2326 17.7815 31.0093C17.3394 30.786 16.9931 30.4806 16.7424 30.0933C16.4918 29.7059 16.3665 29.2707 16.3665 28.7876C16.3665 28.2088 16.4918 27.7166 16.7424 27.311C16.9976 26.9054 17.3463 26.5955 17.7883 26.3813C18.2304 26.1672 18.734 26.0601 19.2991 26.0601C19.8687 26.0601 20.3746 26.1672 20.8167 26.3813C21.2587 26.5955 21.6051 26.9054 21.8557 27.311C22.1109 27.7166 22.2385 28.2088 22.2385 28.7876ZM20.9739 28.8081C20.9739 28.4754 20.9032 28.1815 20.762 27.9263C20.6207 27.6711 20.4247 27.4705 20.1741 27.3247C19.9234 27.1743 19.6318 27.0991 19.2991 27.0991C18.9664 27.0991 18.6747 27.1698 18.4241 27.311C18.178 27.4478 17.9843 27.6437 17.843 27.8989C17.7063 28.1541 17.6379 28.4572 17.6379 28.8081C17.6379 29.1499 17.7063 29.4484 17.843 29.7036C17.9843 29.9588 18.1803 30.1571 18.4309 30.2983C18.6816 30.4396 18.9732 30.5103 19.3059 30.5103C19.6386 30.5103 19.928 30.4396 20.1741 30.2983C20.4247 30.1571 20.6207 29.9588 20.762 29.7036C20.9032 29.4484 20.9739 29.1499 20.9739 28.8081ZM30.5032 26.1968V26.9077L26.3811 36.1499H25.0481L29.1633 27.2358H23.7766V26.1968H30.5032ZM41.6936 33.4565C41.6936 34.0627 41.5523 34.5776 41.2698 35.0015C40.9918 35.4207 40.6135 35.7397 40.135 35.9585C39.6611 36.1772 39.1256 36.2866 38.5286 36.2866C37.9316 36.2866 37.3938 36.1772 36.9153 35.9585C36.4368 35.7397 36.0585 35.4207 35.7805 35.0015C35.5025 34.5776 35.3635 34.0627 35.3635 33.4565C35.3635 33.0601 35.4387 32.6978 35.5891 32.3696C35.7441 32.0369 35.9605 31.7476 36.2385 31.5015C36.5211 31.2554 36.8538 31.0662 37.2366 30.9341C37.6239 30.7974 38.05 30.729 38.5149 30.729C39.1256 30.729 39.6702 30.8475 40.1487 31.0845C40.6272 31.3169 41.0032 31.6382 41.2766 32.0483C41.5546 32.4585 41.6936 32.9279 41.6936 33.4565ZM40.4221 33.4292C40.4221 33.0601 40.3424 32.7342 40.1829 32.4517C40.0234 32.1646 39.8 31.9412 39.5129 31.7817C39.2258 31.6222 38.8931 31.5425 38.5149 31.5425C38.1275 31.5425 37.7926 31.6222 37.51 31.7817C37.232 31.9412 37.0155 32.1646 36.8606 32.4517C36.7056 32.7342 36.6282 33.0601 36.6282 33.4292C36.6282 33.812 36.7034 34.1401 36.8538 34.4136C37.0087 34.6825 37.2275 34.8898 37.51 35.0356C37.7971 35.1769 38.1366 35.2476 38.5286 35.2476C38.9205 35.2476 39.2577 35.1769 39.5403 35.0356C39.8228 34.8898 40.0393 34.6825 40.1897 34.4136C40.3446 34.1401 40.4221 33.812 40.4221 33.4292ZM41.4612 28.7876C41.4612 29.2707 41.3336 29.7059 41.0784 30.0933C40.8232 30.4806 40.4745 30.786 40.0325 31.0093C39.5904 31.2326 39.0891 31.3442 38.5286 31.3442C37.9589 31.3442 37.4508 31.2326 37.0042 31.0093C36.5621 30.786 36.2157 30.4806 35.9651 30.0933C35.7144 29.7059 35.5891 29.2707 35.5891 28.7876C35.5891 28.2088 35.7144 27.7166 35.9651 27.311C36.2203 26.9054 36.5689 26.5955 37.011 26.3813C37.453 26.1672 37.9566 26.0601 38.5217 26.0601C39.0914 26.0601 39.5972 26.1672 40.0393 26.3813C40.4814 26.5955 40.8277 26.9054 41.0784 27.311C41.3336 27.7166 41.4612 28.2088 41.4612 28.7876ZM40.1965 28.8081C40.1965 28.4754 40.1259 28.1815 39.9846 27.9263C39.8433 27.6711 39.6474 27.4705 39.3967 27.3247C39.1461 27.1743 38.8544 27.0991 38.5217 27.0991C38.189 27.0991 37.8974 27.1698 37.6467 27.311C37.4006 27.4478 37.2069 27.6437 37.0657 27.8989C36.929 28.1541 36.8606 28.4572 36.8606 28.8081C36.8606 29.1499 36.929 29.4484 37.0657 29.7036C37.2069 29.9588 37.4029 30.1571 37.6536 30.2983C37.9042 30.4396 38.1959 30.5103 38.5286 30.5103C38.8612 30.5103 39.1506 30.4396 39.3967 30.2983C39.6474 30.1571 39.8433 29.9588 39.9846 29.7036C40.1259 29.4484 40.1965 29.1499 40.1965 28.8081ZM49.7258 26.1968V26.9077L45.6038 36.1499H44.2708L48.386 27.2358H42.9993V26.1968H49.7258ZM56.0217 26.1831H56.1311V27.2563H56.0217C55.3518 27.2563 54.7913 27.3657 54.3401 27.5845C53.8889 27.7987 53.5312 28.0881 53.2668 28.4526C53.0025 28.8127 52.8111 29.2183 52.6926 29.6694C52.5787 30.1206 52.5217 30.5786 52.5217 31.0435V32.5063C52.5217 32.9484 52.5741 33.3403 52.679 33.6821C52.7838 34.0194 52.9273 34.3042 53.1096 34.5366C53.2919 34.769 53.497 34.9445 53.7249 35.063C53.9573 35.1815 54.1988 35.2407 54.4495 35.2407C54.7411 35.2407 55.0009 35.186 55.2288 35.0767C55.4566 34.9627 55.648 34.8055 55.803 34.605C55.9625 34.3999 56.0833 34.1584 56.1653 33.8804C56.2473 33.6024 56.2883 33.297 56.2883 32.9644C56.2883 32.6681 56.2519 32.3833 56.179 32.1099C56.106 31.8319 55.9944 31.5858 55.844 31.3716C55.6936 31.1528 55.5045 30.9819 55.2766 30.8589C55.0533 30.7313 54.7867 30.6675 54.4768 30.6675C54.1259 30.6675 53.7978 30.7541 53.4924 30.9272C53.1917 31.0959 52.9433 31.3192 52.7473 31.5972C52.5559 31.8706 52.4465 32.1691 52.4192 32.4927L51.7493 32.4858C51.8131 31.9754 51.9316 31.5402 52.1047 31.1802C52.2825 30.8156 52.5012 30.5194 52.761 30.2915C53.0253 30.0591 53.3193 29.8905 53.6428 29.7856C53.9709 29.6763 54.3173 29.6216 54.6819 29.6216C55.1786 29.6216 55.607 29.715 55.967 29.9019C56.3271 30.0887 56.6233 30.3394 56.8557 30.6538C57.0881 30.9637 57.259 31.3146 57.3684 31.7065C57.4823 32.0939 57.5393 32.4927 57.5393 32.9028C57.5393 33.3722 57.4732 33.812 57.3411 34.2222C57.2089 34.6323 57.0107 34.9924 56.7463 35.3022C56.4866 35.6121 56.1653 35.8537 55.7825 36.0269C55.3997 36.2 54.9553 36.2866 54.4495 36.2866C53.9117 36.2866 53.4423 36.1772 53.0413 35.9585C52.6402 35.7352 52.3075 35.439 52.0432 35.0698C51.7789 34.7007 51.5806 34.2905 51.4485 33.8394C51.3163 33.3882 51.2502 32.9302 51.2502 32.4653V31.8706C51.2502 31.1688 51.3209 30.4806 51.4622 29.8062C51.6034 29.1317 51.8472 28.521 52.1936 27.9741C52.5445 27.4272 53.0299 26.992 53.6497 26.6685C54.2694 26.3449 55.0601 26.1831 56.0217 26.1831ZM68.9485 26.1968V26.9077L64.8264 36.1499H63.4934L67.6086 27.2358H62.2219V26.1968H68.9485ZM75.2444 26.1831H75.3538V27.2563H75.2444C74.5745 27.2563 74.0139 27.3657 73.5627 27.5845C73.1116 27.7987 72.7538 28.0881 72.4895 28.4526C72.2252 28.8127 72.0338 29.2183 71.9153 29.6694C71.8014 30.1206 71.7444 30.5786 71.7444 31.0435V32.5063C71.7444 32.9484 71.7968 33.3403 71.9016 33.6821C72.0064 34.0194 72.15 34.3042 72.3323 34.5366C72.5146 34.769 72.7196 34.9445 72.9475 35.063C73.1799 35.1815 73.4215 35.2407 73.6721 35.2407C73.9638 35.2407 74.2236 35.186 74.4514 35.0767C74.6793 34.9627 74.8707 34.8055 75.0256 34.605C75.1851 34.3999 75.3059 34.1584 75.3879 33.8804C75.47 33.6024 75.511 33.297 75.511 32.9644C75.511 32.6681 75.4745 32.3833 75.4016 32.1099C75.3287 31.8319 75.217 31.5858 75.0667 31.3716C74.9163 31.1528 74.7271 30.9819 74.4993 30.8589C74.276 30.7313 74.0094 30.6675 73.6995 30.6675C73.3486 30.6675 73.0204 30.7541 72.7151 30.9272C72.4143 31.0959 72.1659 31.3192 71.97 31.5972C71.7786 31.8706 71.6692 32.1691 71.6418 32.4927L70.9719 32.4858C71.0357 31.9754 71.1542 31.5402 71.3274 31.1802C71.5051 30.8156 71.7239 30.5194 71.9836 30.2915C72.248 30.0591 72.5419 29.8905 72.8655 29.7856C73.1936 29.6763 73.54 29.6216 73.9045 29.6216C74.4013 29.6216 74.8297 29.715 75.1897 29.9019C75.5497 30.0887 75.8459 30.3394 76.0784 30.6538C76.3108 30.9637 76.4817 31.3146 76.5911 31.7065C76.705 32.0939 76.762 32.4927 76.762 32.9028C76.762 33.3722 76.6959 33.812 76.5637 34.2222C76.4316 34.6323 76.2333 34.9924 75.969 35.3022C75.7092 35.6121 75.3879 35.8537 75.0051 36.0269C74.6223 36.2 74.178 36.2866 73.6721 36.2866C73.1344 36.2866 72.665 36.1772 72.2639 35.9585C71.8629 35.7352 71.5302 35.439 71.2659 35.0698C71.0015 34.7007 70.8033 34.2905 70.6711 33.8394C70.539 33.3882 70.4729 32.9302 70.4729 32.4653V31.8706C70.4729 31.1688 70.5435 30.4806 70.6848 29.8062C70.8261 29.1317 71.0699 28.521 71.4163 27.9741C71.7672 27.4272 72.2525 26.992 72.8723 26.6685C73.4921 26.3449 74.2828 26.1831 75.2444 26.1831ZM79.8655 31.4126L78.8538 31.1528L79.3528 26.1968H84.4592V27.3657H80.426L80.1252 30.0728C80.3075 29.9679 80.5377 29.87 80.8157 29.7788C81.0982 29.6877 81.4218 29.6421 81.7864 29.6421C82.2467 29.6421 82.6591 29.7218 83.0237 29.8813C83.3883 30.0363 83.6982 30.2596 83.9534 30.5513C84.2131 30.8429 84.4114 31.1938 84.5481 31.604C84.6848 32.0142 84.7532 32.4722 84.7532 32.978C84.7532 33.4565 84.6871 33.8963 84.5549 34.2974C84.4273 34.6984 84.2336 35.0493 83.9739 35.3501C83.7141 35.6463 83.386 35.8765 82.9895 36.0405C82.5976 36.2046 82.135 36.2866 81.6018 36.2866C81.2008 36.2866 80.8202 36.2319 80.4602 36.1226C80.1047 36.0086 79.7857 35.8377 79.5032 35.6099C79.2252 35.3774 78.9973 35.0903 78.8196 34.7485C78.6464 34.4022 78.537 33.9966 78.4915 33.5317H79.6946C79.7493 33.9054 79.8586 34.2199 80.0227 34.4751C80.1868 34.7303 80.401 34.924 80.6653 35.0562C80.9342 35.1838 81.2463 35.2476 81.6018 35.2476C81.9026 35.2476 82.1692 35.1951 82.4016 35.0903C82.634 34.9855 82.83 34.8351 82.9895 34.6392C83.149 34.4432 83.2698 34.2062 83.3518 33.9282C83.4384 33.6502 83.4817 33.3381 83.4817 32.9917C83.4817 32.6772 83.4384 32.3856 83.3518 32.1167C83.2652 31.8478 83.1353 31.6131 82.9622 31.4126C82.7935 31.2121 82.5862 31.0571 82.3401 30.9478C82.094 30.8338 81.8114 30.7769 81.4924 30.7769C81.0686 30.7769 80.7473 30.8338 80.5286 30.9478C80.3144 31.0617 80.0933 31.2166 79.8655 31.4126ZM96.0461 26.1968V26.9077L91.9241 36.1499H90.5911L94.7063 27.2358H89.3196V26.1968H96.0461ZM102.342 26.1831H102.451V27.2563H102.342C101.672 27.2563 101.112 27.3657 100.66 27.5845C100.209 27.7987 99.8515 28.0881 99.5872 28.4526C99.3228 28.8127 99.1314 29.2183 99.0129 29.6694C98.899 30.1206 98.842 30.5786 98.842 31.0435V32.5063C98.842 32.9484 98.8944 33.3403 98.9993 33.6821C99.1041 34.0194 99.2476 34.3042 99.4299 34.5366C99.6122 34.769 99.8173 34.9445 100.045 35.063C100.278 35.1815 100.519 35.2407 100.77 35.2407C101.061 35.2407 101.321 35.186 101.549 35.0767C101.777 34.9627 101.968 34.8055 102.123 34.605C102.283 34.3999 102.404 34.1584 102.486 33.8804C102.568 33.6024 102.609 33.297 102.609 32.9644C102.609 32.6681 102.572 32.3833 102.499 32.1099C102.426 31.8319 102.315 31.5858 102.164 31.3716C102.014 31.1528 101.825 30.9819 101.597 30.8589C101.374 30.7313 101.107 30.6675 100.797 30.6675C100.446 30.6675 100.118 30.7541 99.8127 30.9272C99.512 31.0959 99.2636 31.3192 99.0676 31.5972C98.8762 31.8706 98.7668 32.1691 98.7395 32.4927L98.0696 32.4858C98.1334 31.9754 98.2519 31.5402 98.425 31.1802C98.6028 30.8156 98.8215 30.5194 99.0813 30.2915C99.3456 30.0591 99.6396 29.8905 99.9631 29.7856C100.291 29.6763 100.638 29.6216 101.002 29.6216C101.499 29.6216 101.927 29.715 102.287 29.9019C102.647 30.0887 102.944 30.3394 103.176 30.6538C103.408 30.9637 103.579 31.3146 103.689 31.7065C103.803 32.0939 103.86 32.4927 103.86 32.9028C103.86 33.3722 103.794 33.812 103.661 34.2222C103.529 34.6323 103.331 34.9924 103.067 35.3022C102.807 35.6121 102.486 35.8537 102.103 36.0269C101.72 36.2 101.276 36.2866 100.77 36.2866C100.232 36.2866 99.7626 36.1772 99.3616 35.9585C98.9605 35.7352 98.6278 35.439 98.3635 35.0698C98.0992 34.7007 97.901 34.2905 97.7688 33.8394C97.6366 33.3882 97.5706 32.9302 97.5706 32.4653V31.8706C97.5706 31.1688 97.6412 30.4806 97.7825 29.8062C97.9237 29.1317 98.1676 28.521 98.5139 27.9741C98.8648 27.4272 99.3502 26.992 99.97 26.6685C100.59 26.3449 101.38 26.1831 102.342 26.1831ZM110.436 31.4126L109.424 31.1528L109.923 26.1968H115.03V27.3657H110.996L110.696 30.0728C110.878 29.9679 111.108 29.87 111.386 29.7788C111.669 29.6877 111.992 29.6421 112.357 29.6421C112.817 29.6421 113.229 29.7218 113.594 29.8813C113.959 30.0363 114.268 30.2596 114.524 30.5513C114.783 30.8429 114.982 31.1938 115.118 31.604C115.255 32.0142 115.323 32.4722 115.323 32.978C115.323 33.4565 115.257 33.8963 115.125 34.2974C114.998 34.6984 114.804 35.0493 114.544 35.3501C114.284 35.6463 113.956 35.8765 113.56 36.0405C113.168 36.2046 112.705 36.2866 112.172 36.2866C111.771 36.2866 111.391 36.2319 111.031 36.1226C110.675 36.0086 110.356 35.8377 110.073 35.6099C109.795 35.3774 109.568 35.0903 109.39 34.7485C109.217 34.4022 109.107 33.9966 109.062 33.5317H110.265C110.32 33.9054 110.429 34.2199 110.593 34.4751C110.757 34.7303 110.971 34.924 111.236 35.0562C111.504 35.1838 111.817 35.2476 112.172 35.2476C112.473 35.2476 112.74 35.1951 112.972 35.0903C113.204 34.9855 113.4 34.8351 113.56 34.6392C113.719 34.4432 113.84 34.2062 113.922 33.9282C114.009 33.6502 114.052 33.3381 114.052 32.9917C114.052 32.6772 114.009 32.3856 113.922 32.1167C113.836 31.8478 113.706 31.6131 113.532 31.4126C113.364 31.2121 113.156 31.0571 112.91 30.9478C112.664 30.8338 112.382 30.7769 112.063 30.7769C111.639 30.7769 111.318 30.8338 111.099 30.9478C110.885 31.0617 110.664 31.2166 110.436 31.4126ZM123.144 26.1968V26.9077L119.022 36.1499H117.689L121.804 27.2358H116.417V26.1968H123.144ZM131.019 26.1968V26.9077L126.897 36.1499H125.564L129.679 27.2358H124.292V26.1968H131.019Z" fill="#777777"/>
</svg>
